<svg width="111" height="16" viewBox="0 0 111 16" xmlns="http://www.w3.org/2000/svg"><title>Logo</title><path d="M14.694 5.206h-4.597c-.045-.902-.496-1.51-1.69-1.51-.992 0-1.758.405-1.758 1.194 0 .473.36.721 1.082.879l2.388.608c2.186.564 3.786 1.555 3.786 3.786 0 3.561-3.155 5.837-7.707 5.837-2.997 0-6.265-1.217-6.197-5.498h4.575c.067 1.171.766 1.712 2.343 1.712 1.285 0 1.848-.473 1.848-1.082 0-.315-.225-.653-1.036-.833l-2.48-.631c-2.5-.654-3.808-1.803-3.763-3.944C1.556 2.006 4.868 0 8.79 0c2.411 0 6.242.856 5.904 5.206zm9.59-.924l-2.005 11.38h-4.53l2.006-11.38h-4.4l.698-3.944h13.482l-.698 3.944h-4.552zm5.885 9.194l-1.194 2.186h-4.913L33.144.248h4.439l3.628 15.414H36.39l-.429-2.186H30.17zm4.282-7.865l-2.276 4.17h3.087l-.811-4.17zm18.344 5.499l3.831 4.552h-5.499l-3.38-4.034h-.563l-.721 4.034h-4.53L44.637.338h6.896c3.74 0 5.86 1.69 5.86 4.665 0 2.771-1.736 5.093-4.598 6.107zm-4.913-3.493h2.321c1.465 0 2.524-.834 2.524-1.96 0-.902-.743-1.466-1.915-1.466h-2.321l-.609 3.426zm24.303-2.411h-4.598c-.045-.902-.495-1.51-1.69-1.51-.991 0-1.758.405-1.758 1.194 0 .473.361.721 1.082.879l2.389.608c2.186.564 3.786 1.555 3.786 3.786 0 3.561-3.155 5.837-7.707 5.837-2.997 0-6.265-1.217-6.198-5.498h4.575c.068 1.171.766 1.712 2.344 1.712 1.284 0 1.848-.473 1.848-1.082 0-.315-.226-.653-1.037-.833l-2.479-.631c-2.501-.654-3.808-1.803-3.763-3.944C59.046 2.006 62.359 0 66.28 0c2.412 0 6.243.856 5.905 5.206zm14.458 10.456h-4.552l.97-5.454h-5.41l-.968 5.454h-4.53L74.857.338h4.53L78.35 6.242h5.409L84.796.338h4.551l-2.704 15.324zm2.225 0L91.572.338h4.53l-2.705 15.324h-4.53zM104.518.338c3.832 0 6.198 1.69 6.198 5.07 0 3.922-3.155 6.716-8.203 6.716h-1.758l-.63 3.538h-4.53L98.299.338h6.22zm-1.216 7.932c1.645 0 2.749-.991 2.749-2.366 0-1.104-.744-1.713-2.028-1.713h-1.87l-.722 4.08h1.87z" fill="#040404" fill-rule="evenodd"/></svg>