 <svg xmlns="http://www.w3.org/2000/svg" viewBox="0 0 124.13953 49.7"> <g> <g> <path fill="#c10f3a" d="M34.77839,28.95239a.16857.16857,0,0,1-.1384.1094,6.16036,6.16036,0,0,0-4.51678,2.1254s-.13663.13253-.48162-.13837a.36232.36232,0,0,1-.16715-.42333c.47035-1.18367,1.68283-1.96419,3.60008-2.31847l.05632-.0082c.3924-.05384,1.30553-.17992,1.61644.43328a.3093.3093,0,0,1,.03111.22029m5.48267,5.86684-.011-.01432a16.58068,16.58068,0,0,1,1.9472-2.4674c.0237-.01082.0409-.01784.06727-.03014a3.32114,3.32114,0,0,0,1.7258-.51781,11.12311,11.12311,0,0,0,.842-.77673,7.661,7.661,0,0,0,.50354-1.03271v-.00087l-.013.02369.04712-.10942.00771-.02925.07676-.23727a.20047.20047,0,0,0-.10462-.17025.28652.28652,0,0,0-.16152-.01756l.00444-.01433a.67859.67859,0,0,0,.075-.244v-.017a.23174.23174,0,0,0-.11766-.17435.35818.35818,0,0,0-.24777-.01405.39343.39343,0,0,0-.10906-.10181c-.01927-.01375-.13011-.05323-.33432.07051a.90487.90487,0,0,0-.22405.213l.01541-.12551a.21963.21963,0,0,0-.13782-.14892.38322.38322,0,0,0-.33757.065,1.82434,1.82434,0,0,0-.35239.44117,1.48089,1.48089,0,0,0-.31683.36071,1.07732,1.07732,0,0,1-.62032.06728,1.80894,1.80894,0,0,0,.44486-.32736,1.15284,1.15284,0,0,0,.30616-.68428.556.556,0,0,0-.00859-.10006.28461.28461,0,0,0-.14226-.20186c-.198-.09859-.43449.10153-.47984.14306-.00355.005-.06905.074-.10492.11264a.83447.83447,0,0,0-.3349.1565.71588.71588,0,0,1-.26081.127,1.09886,1.09886,0,0,0-.39418.20273l-.01038.00791L41.51,29.247c-.0246.017-.24185.16149-.30912.20713a2.49,2.49,0,0,0-.655.50174,5.89755,5.89755,0,0,1-2.75719,1.43146c-.0169-.72027-.46116-2.6552-.551-3.39566-.18168-1.30772-1.69823-3.1078-2.7889-4.24669,1.02843.59739,1.604.681,2.17007-.08982.14938-.23346.38529.01843.59868-.02282.31119-.16179.27089-.24868.27089-.47393.09128-.24136.33579-.1223.51747-.15154.4582-.07579.18583-.55645.36514-.79779,2.01447-.12025-.257-1.97182,1.099-2.7386a3.8637,3.8637,0,0,0,1.60873-1.49056c.32483-.43765.3921-.09566.63513-.45521a6.17513,6.17513,0,0,0-1.29486-4.8634c-4.999-6.42622-10.7069-3.46324-12.371.51695-.68818,1.01134-.47568,2.48172-.51421,3.69114-.12952.42069-.382.409-.74509.16061a.91532.91532,0,0,0,.8586,1.05465c.03053.10678.2208.26914.30023.38032a1.84821,1.84821,0,0,1-.98248-.17115.65842.65842,0,0,0,.16774.51695,1.19581,1.19581,0,0,0,.85208.97975c.802.32532.4256,1.42445.33165,1.87585-.02934.09976-.05987.19924-.08625.29432a2.14807,2.14807,0,0,0-1.43239,1.557c-.09039,1.68745-.96084,3.0879-.94544,4.83414a2.67409,2.67409,0,0,0,0,.35986c.43242,1.889-.12,4.36488-.02874,6.31211a48.48925,48.48925,0,0,0-17.04343,5.8142A67.40063,67.40063,0,0,1,33.80894,36.191,67.39614,67.39614,0,0,1,58.837,40.83793a48.86737,48.86737,0,0,0-18.576-6.0187"/> <g> <path fill="#63666b" d="M114.69992,30.74074v-4.8792c0-.2946.0157-.56522.0246-.78873-.315.06466-1.27472.239-1.60458.29607l.0157.222.30616.02369c.17723.01609.27475.15974.27475.43854v4.68758c0,.15885-.07233.19045-.19443.20624l-.33847.048v.26272h2.04V30.995l-.33075-.048c-.12033-.01579-.19294-.04739-.19294-.20624m-4.50758-.56551a.59755.59755,0,0,1,.47656-.6445l.74953-.239.00771,1.21a1.53646,1.53646,0,0,1-.66922.26271.54711.54711,0,0,1-.56458-.5892m1.44423,1.20239,1.32185-.21532-.01572-.23111-.19383-.02371c-.25813-.03188-.36276-.16674-.36276-.43765l-.008-2.23686a1.1328,1.1328,0,0,0-1.26613-1.16905c-.75812,0-1.70919.60413-1.70919,1.217a.69027.69027,0,0,0,.12833.42157l.799-.3183a.95668.95668,0,0,1-.14551-.43765c-.008-.239.16123-.42977.53228-.42977a.6975.6975,0,0,1,.69353.70067l.008.708-1.20061.43766c-.59691.21532-.94426.55731-.94426,1.09093a.9214.9214,0,0,0,1.04.93822,2.446,2.446,0,0,0,1.1449-.59593,1.28123,1.28123,0,0,0,.17812.5813m-2.63716-.478-.088-.23814a1.604,1.604,0,0,1-.54888.11117c-.25816,0-.45969-.10415-.4511-.63689V27.71632h1.008v-.454h-1.008V26.19593l-.992.44555v.6208h-.5726v.454h.5726V30.2627a.94653.94653,0,0,0,1.00769,1.05875,2.31565,2.31565,0,0,0,1.07228-.42186m-2.73348.35809V30.995l-.33845-.048c-.12062-.01579-.19295-.04739-.19295-.20624V27.86757c0-.287.00682-.55789.02341-.77994-.31416.07138-1.27293.25481-1.59568.318l.0157.23141.29815.0237c.20155.01521.275.17494.275.42975v2.65025c0,.15885-.0735.19045-.19383.20624l-.33935.048v.26272Zm-.43478-5.44353a.60513.60513,0,1,0-.6046.59592.60547.60547,0,0,0,.6046-.59592m-4.00759,1.92616c.66921,0,1.11258.59622,1.11258,1.52772,0,1.12164-.5637,1.63156-1.1283,1.63156a1.08175,1.08175,0,0,1-.69351-.24721V28.01a1.16227,1.16227,0,0,1,.70923-.26973m-.10552,5.22061-.41077-.048c-.12064-.0158-.19294-.04739-.19294-.20713V31.21788a1.58477,1.58477,0,0,0,.64461.13575,2.22213,2.22213,0,0,0,2.14488-2.26816c0-1.22609-.72493-1.98965-1.64489-1.98965a1.73757,1.73757,0,0,0-1.17691.548,4.2193,4.2193,0,0,0-.05691-.54035l-1.48336.30221.016.23141.22585.0237c.24273.024.34735.16675.34735.43765v4.60742c0,.15974-.07261.19133-.19472.20713l-.33846.048v.26242H101.718ZM99.2679,30.02368c0-.54853-.29756-.93061-1.03228-1.16962l-.50769-.16676c-.54888-.18342-.69293-.40635-.69293-.68427,0-.31831.24066-.53362.66922-.53362.57171,0,.80555.35018.99908.85923h.29846l-.0086-.9862a2.49706,2.49706,0,0,0-1.096-.25481,1.40679,1.40679,0,0,0-1.556,1.29659c0,.5892.33876.94,1.10489,1.186l.4422.14394c.50087.15885.6135.40577.6135.69919,0,.33527-.25815.622-.76613.622-.57231,0-.815-.34229-1.02339-1.01983h-.34647l.05573,1.09911a2.737,2.737,0,0,0,1.17809.27c.88646,0,1.6683-.48505,1.6683-1.361m-4.37866-.73986c0,1.05026-.40308,1.65555-.98249,1.65555-.62121,0-1.07318-.68486-1.07318-1.77462,0-1.043.38766-1.65556.98337-1.65556.60461,0,1.0723.69248,1.0723,1.77463m-3.04765.01551a1.92388,1.92388,0,0,0,1.943,2.06162,2.15071,2.15071,0,0,0,2.09686-2.21229,1.94064,1.94064,0,0,0-1.959-2.061,2.14248,2.14248,0,0,0-2.08087,2.2117M87.9238,30.97887l-.45938-.04768c-.12952-.0161-.21014-.06349-.21014-.25511V28.53576h2.61256v2.14032c0,.19162-.08032.239-.20983.25511l-.45939.04768v.27881h2.42674v-.27881l-.45909-.04768c-.12952-.0161-.21043-.06349-.21043-.25511V25.949c0-.19133.08091-.23843.21043-.25511l.45909-.04739v-.27763H89.19762v.27763l.45939.04739c.12951.01668.20983.06378.20983.25511v2.1333H87.25428V25.949c0-.19133.08062-.23843.21014-.25511l.45938-.04739v-.27763h-2.427v.27763l.45939.04739c.12862.01668.20983.06378.20983.25511v4.72707c0,.19162-.08121.239-.20983.25511l-.45939.04768v.27881h2.427Zm-6.563.01609-.37107-.048c-.12121-.01579-.19352-.04739-.19352-.20624V28.09049a1.24076,1.24076,0,0,1,.76553-.31039.64036.64036,0,0,1,.71723.67638v2.28426c0,.15885-.08031.19045-.19264.20624l-.33075.048v.26272h1.99994V30.995l-.29845-.048c-.12093-.01579-.19412-.04739-.19412-.20624V28.26486a1.11863,1.11863,0,0,0-1.20062-1.16144,1.78373,1.78373,0,0,0-1.26612.62811v-1.87c0-.2946.016-.56522.024-.78873-.31476.06466-1.27383.239-1.60458.29607l.016.222.30616.02369c.17812.01609.27444.15974.27444.43854v4.68758c0,.15885-.07232.19045-.19324.20624l-.29844.048v.26272h2.04025Zm-4.63651-2.09321c0-.94729.46828-1.36067,1-1.36067.42708,0,.70953.16646,1.00768.77176h.28244V27.398a2.09706,2.09706,0,0,0-3.19375,1.88579A1.90109,1.90109,0,0,0,77.692,31.33666a2.56886,2.56886,0,0,0,1.45106-.79515l-.16094-.19865a1.74228,1.74228,0,0,1-.95137.33322c-.83814,0-1.30642-.84255-1.30642-1.77433m-2.064,2.09321-.37076-.048c-.11352-.01579-.19383-.04739-.19383-.20624V28.55185a1.15408,1.15408,0,0,1,.79873-.70856,1.05656,1.05656,0,0,1,.68492.19864l.23355-.81154a.98825.98825,0,0,0-.72553-.19162c-.44338.04886-.73353.478-1.016,1.03505a5.73245,5.73245,0,0,0-.06431-.9704l-1.48337.30221.0163.23141.26526.0237c.21813.01521.30675.16675.30675.43765v2.64235c0,.15885-.07262.19045-.19294.20624l-.33906.048v.26272h2.08027Zm-5.0713-.81973a.59683.59683,0,0,1,.4751-.6445l.75042-.239.0083,1.21a1.54577,1.54577,0,0,1-.66922.26271.5468.5468,0,0,1-.5646-.5892m1.44276,1.20239,1.32244-.21532-.0163-.23111-.19265-.02371c-.25844-.03188-.36306-.16674-.36306-.43765L71.77336,28.233a1.1325,1.1325,0,0,0-1.26523-1.16905c-.75872,0-1.7092.60413-1.7092,1.217a.6886.6886,0,0,0,.12862.42157l.79814-.3183a.96189.96189,0,0,1-.14492-.43765c-.008-.239.16093-.42977.53258-.42977a.69743.69743,0,0,1,.69323.70067l.008.708-1.20151.43766c-.5969.21532-.94366.55731-.94366,1.09093a.92139.92139,0,0,0,1.04.93822,2.45254,2.45254,0,0,0,1.14579-.59593,1.302,1.302,0,0,0,.17664.5813M66.58944,27.5013c.31416,0,.74984.22322.847,1.07425l-1.64489.05559c.064-.72407.40278-1.12984.79785-1.12984m1.74921,3.056-.18464-.22322a2.03581,2.03581,0,0,1-1.016.342c-.831,0-1.30613-.77176-1.35473-1.66316h2.48334v-.24634a1.53413,1.53413,0,0,0-1.548-1.679,2.01693,2.01693,0,0,0-1.81441,2.15611,1.92011,1.92011,0,0,0,1.879,2.102,2.79035,2.79035,0,0,0,1.55538-.78843m-3.83748-.53362c0-.54853-.29845-.93061-1.032-1.16962l-.5074-.16676c-.54889-.18342-.69352-.40635-.69352-.68427,0-.31831.24125-.53362.66922-.53362.572,0,.80614.35018.99908.85923H64.235l-.008-.9862a2.49929,2.49929,0,0,0-1.0963-.25481,1.4065,1.4065,0,0,0-1.55568,1.29659c0,.5892.33846.94,1.104,1.186l.44338.14394c.50059.15885.61292.40577.61292.69919,0,.33527-.25815.622-.76554.622-.5729,0-.815-.34229-1.024-1.01983h-.34705l.05631,1.09911a2.73592,2.73592,0,0,0,1.17721.27c.88705,0,1.66889-.48505,1.66889-1.361M59.42988,27.5013c.31445,0,.75042.22322.84674,1.07425l-1.64488.05559c.0643-.72407.40306-1.12984.79814-1.12984m1.7501,3.056-.18583-.22322a2.033,2.033,0,0,1-1.016.342c-.82986,0-1.30613-.77176-1.35414-1.66316h2.48274v-.24634a1.534,1.534,0,0,0-1.54738-1.679,2.017,2.017,0,0,0-1.815,2.15611,1.92028,1.92028,0,0,0,1.879,2.102A2.79193,2.79193,0,0,0,61.18,30.5573m-6.51524-2.35563c-.16894,0-.31446-.01609-.45938-.02429V25.78986a5.08824,5.08824,0,0,1,.5889-.02369,1.06308,1.06308,0,0,1,1.09628,1.217,1.09107,1.09107,0,0,1-1.2258,1.21849m3.29778,3.03991-.008-.20625a1.4803,1.4803,0,0,1-1.04829-.66906,11.06667,11.06667,0,0,1-1.1535-1.86239,1.64121,1.64121,0,0,0,1.20981-1.56809c0-.8917-.71723-1.60787-1.93534-1.60787-.48338,0-.90217.04857-1.66089.04857-.28156.007-.612,0-.91847-.00761v.27763l.45909.04739c.12862.01668.21012.08046.21012.21532v4.76686c0,.19162-.0815.239-.21012.25511l-.45909.04768v.27881h2.34642v-.27881l-.428-.05558c-.10463-.01581-.16093-.06379-.16093-.17466V28.599c.17693,0,.36305.00848.48338.01609a17.64345,17.64345,0,0,0,1.23381,2.061,1.5477,1.5477,0,0,0,1.38705.63689,4.54666,4.54666,0,0,0,.65292-.07139" /> <path fill="#63666b" d="M115.04631,21.58309c0-.54969-.29845-.93119-1.03227-1.17021l-.50769-.16675c-.548-.18344-.69265-.40607-.69265-.68457,0-.3183.24067-.53362.66924-.53362.57141,0,.80525.35019,1,.85894h.29815l-.00948-.9859a2.49916,2.49916,0,0,0-1.096-.25511,1.40712,1.40712,0,0,0-1.55568,1.29747c0,.5892.33847.93939,1.10461,1.18571l.44337.14335c.5.15887.61261.40606.61261.70067,0,.33439-.25844.6205-.76525.6205-.57349,0-.815-.3417-1.02457-1.01924h-.34646l.056,1.09911a2.73428,2.73428,0,0,0,1.1772.27032c.88705,0,1.66889-.48563,1.66889-1.36067m-3.49872-3.32691c0,.24722-.18583.46926-.47568.71617l.16064.14306a1.97516,1.97516,0,0,0,.992-1.51981.60317.60317,0,0,0-.5969-.65269.64441.64441,0,0,0-.5889.81155c.30615.10326.50887.2314.50887.50172M108.58,22.55409l-.33077-.04741c-.1126-.01668-.19294-.04855-.19294-.20742V19.649a1.24,1.24,0,0,1,.76614-.31068.64114.64114,0,0,1,.71723.67668v2.28424c0,.15887-.08032.19074-.19264.20742l-.33076.04741v.26182h2.04v-.26182l-.33933-.04741c-.12122-.01668-.19383-.04855-.19383-.20742V19.82369a1.12907,1.12907,0,0,0-1.23382-1.16173,1.77986,1.77986,0,0,0-1.25723.66058,4.70836,4.70836,0,0,0-.06373-.66058l-1.48425.3025.01572.23082.26614.02429c.21813.01578.307.16645.307.43706v2.64263c0,.15887-.07231.19074-.19443.20742l-.33874.04741v.26182H108.58Zm-4.08793-3.49426c.31506,0,.75044.22293.847,1.074l-1.6446.05705c.06431-.72554.40307-1.131.79755-1.131m1.75011,3.05571-.18583-.222a2.03672,2.03672,0,0,1-1.01569.34142c-.82956,0-1.30612-.77175-1.35413-1.66346H106.169v-.246a1.53413,1.53413,0,0,0-1.54708-1.67954,2.01675,2.01675,0,0,0-1.81472,2.1567,1.91959,1.91959,0,0,0,1.87844,2.10169,2.79417,2.79417,0,0,0,1.55657-.78872m-4.59561.43855-.37078-.04741c-.11351-.01668-.19382-.04855-.19382-.20742V20.1101a1.15176,1.15176,0,0,1,.79844-.708,1.05393,1.05393,0,0,1,.68492.19806l.23384-.81125a.98162.98162,0,0,0-.72582-.19044c-.44338.04739-.73323.47715-1.01568,1.03445a5.70244,5.70244,0,0,0-.06461-.971l-1.48336.3025.0166.23082.26525.02429c.21813.01578.30616.16645.30616.43706v2.64263c0,.15887-.07232.19074-.19295.20742l-.33846.04741v.26182h2.08027Zm-5.67709-1.8153c0-1.12164.5646-1.63127,1.13008-1.63127a1.085,1.085,0,0,1,.69293.24691v2.64234a1.16884,1.16884,0,0,1-.71041.27091c-.66922,0-1.1126-.59739-1.1126-1.52889m3.419,1.982-.016-.23083-.23384-.02426c-.25725-.02372-.36276-.16648-.36276-.43708V17.42007c0-.29432.0166-.56521.0243-.78755l-1.64459.2946.0163.22322.34646.02282c.17724.01668.27415.15972.27415.43824v1.17752a1.59855,1.59855,0,0,0-.64491-.13487,2.22248,2.22248,0,0,0-2.14577,2.26818,1.6375,1.6375,0,0,0,2.8307,1.43233,1.83285,1.83285,0,0,0,.13692.58159Zm-5.24082-.42157V17.42007c0-.29432.01659-.56521.0246-.78755-.31416.06348-1.27413.239-1.60488.2946l.01571.22322.30734.02282c.17693.01668.27385.15972.27385.43824v4.68786c0,.15887-.07232.19074-.19265.20742l-.33965.04741v.26182h2.03937v-.26182l-.32987-.04741c-.12121-.01668-.19382-.04855-.19382-.20742m-1.77293.51665v-.26182l-.33846-.04741c-.12241-.01668-.19472-.04855-.19472-.20742V19.4258c0-.28669.00859-.55643.0246-.77993-.31475.07137-1.27412.25511-1.59687.31859l.01689.23082.29756.02429c.20212.01578.27444.17436.27444.42945v2.65024c0,.15887-.07232.19074-.19294.20742l-.33905.04741v.26182Zm-.43627-5.44353a.6045.6045,0,1,0-.604.59739.60444.60444,0,0,0,.604-.59739m-4.31316,5.18171-.37076-.04741c-.12122-.01668-.19384-.04855-.19384-.20742V19.649a1.24194,1.24194,0,0,1,.76584-.31068.64067.64067,0,0,1,.71752.67668v2.28424c0,.15887-.08061.19074-.19323.20742l-.33016.04741v.26182H90.02v-.26182l-.29845-.04741c-.12033-.01668-.19353-.04855-.19353-.20742V19.82369A1.11932,1.11932,0,0,0,88.3268,18.662a1.78313,1.78313,0,0,0-1.26612.629V17.42007c0-.29432.01631-.56521.024-.78755-.31445.06348-1.27382.239-1.60458.2946l.0163.22322.30615.02282c.17783.01668.27445.15972.27445.43824v4.68786c0,.15887-.07262.19074-.19295.20742l-.29844.04741v.26182h2.03966ZM85.029,22.45022l.016-1.28167h-.37076c-.23414.95519-.53259,1.29719-1.57287,1.29719-1.20892,0-2.072-1.01078-2.104-2.60227-.032-1.5754.81473-2.60285,2.05595-2.60285a1.437,1.437,0,0,1,1.56458,1.2258h.37076l-.0243-1.26471a4.3594,4.3594,0,0,0-1.78952-.39874,3.1553,3.1553,0,0,0-3.39529,3.12037,2.981,2.981,0,0,0,3.27377,2.98492,4.20267,4.20267,0,0,0,1.97565-.478m-8.80475-3.39039c.31476,0,.75043.22293.847,1.074l-1.64489.05705c.064-.72554.40307-1.131.79784-1.131m1.7504,3.05571-.18583-.222a2.03965,2.03965,0,0,1-1.016.34142c-.83075,0-1.30614-.77175-1.35444-1.66346h2.483v-.246a1.53436,1.53436,0,0,0-1.54739-1.67954,2.01716,2.01716,0,0,0-1.815,2.1567,1.91984,1.91984,0,0,0,1.879,2.10169,2.79219,2.79219,0,0,0,1.55657-.78872m-7.10355-1.37675c0-1.12164.56431-1.63127,1.1289-1.63127a1.08579,1.08579,0,0,1,.69322.24691v2.64234a1.167,1.167,0,0,1-.70952.27091c-.66922,0-1.1126-.59739-1.1126-1.52889m3.4187,1.982-.016-.23083L74.04,22.46574c-.25844-.02372-.36306-.16648-.36306-.43708V17.42007c0-.29432.0163-.56521.024-.78755l-1.64459.2946.016.22322.34647.02282c.17783.01668.27444.15972.27444.43824v1.17752a1.59752,1.59752,0,0,0-.64491-.13487,2.22234,2.22234,0,0,0-2.14488,2.26818,1.637,1.637,0,0,0,2.82981,1.43233,1.81683,1.81683,0,0,0,.13693.58159Zm-6.01495.21532,1.38644-.21532-.016-.23083-.20153-.02426c-.25756-.03131-.36307-.16648-.36307-.43708V19.4258c0-.28669.0083-.55643.024-.77993l-1.59539.31859.016.23082.29845.02429c.20065.01578.273.17436.273.42945v2.37964a1.19121,1.19121,0,0,1-.70093.2788A.659.659,0,0,1,66.678,21.591V19.4258c0-.28669.008-.55643.024-.77993l-1.5954.31859.01571.23082.29757.02429c.20212.01578.27444.17436.27444.42945V21.8774a1.09,1.09,0,0,0,1.16949,1.08245,2.03507,2.03507,0,0,0,1.27324-.61289,1.90178,1.90178,0,0,0,.13782.58919m-3.85379-5.4286c0-.19076.08032-.23814.21695-.25482l.45256-.0468v-.27881H62.63067v.27881l.50829.03949c.10462.00731.15264.06377.15264.18255V22.729A1.61411,1.61411,0,0,1,62.099,24.44777l.11263.24721c1.37074-.19953,2.20948-.892,2.20948-2.30063Zm-3.26577,4.79991a.58035.58035,0,1,0-.5806.57311.57389.57389,0,0,0,.5806-.57311m-1.60458.15067L59.46211,22.22a1.56974,1.56974,0,0,1-.5477.11089c-.25814,0-.46028-.10416-.452-.63689V19.27515h1.008v-.45434h-1.008V17.75446l-.992.44526v.62109h-.5717v.45434h.5717v2.54609a.94723.94723,0,0,0,1.00828,1.05933,2.31242,2.31242,0,0,0,1.072-.42244M56.67292,21.089c0-.76356-.29846-1.28928-1.45107-1.66317L54.48,19.18768c-.68611-.22322-.91136-.54942-.91136-1.01165,0-.55643.41109-.89113,1.048-.89113s1.064.27092,1.32244,1.138h.32246v-1.2331a3.45314,3.45314,0,0,0-1.51627-.35867,1.80985,1.80985,0,0,0-1.96764,1.7752c0,.77176.35565,1.30449,1.46025,1.65438l.65321.20772c.71723.23082.94248.56493.94248,1.06724,0,.51664-.41879.94611-1.19292.94611-.82185,0-1.20062-.3025-1.45906-1.24072h-.37076l.00829,1.32116a4.35191,4.35191,0,0,0,1.72521.3578A1.93949,1.93949,0,0,0,56.67292,21.089" /> </g> </g> <rect fill="none" width="124.13953" height="49.7"/> </g> </svg>