<svg xmlns="http://www.w3.org/2000/svg" xmlns:xlink="http://www.w3.org/1999/xlink" viewBox="0 0 49.861 49.89">
  <defs>
    <style>
      .cls-1 {
        fill: url(#linear-gradient);
      }
    </style>
    <linearGradient id="linear-gradient" x1="0.5" x2="0.5" y2="1" gradientUnits="objectBoundingBox">
      <stop offset="0" stop-color="#556df6"/>
      <stop offset="1" stop-color="#2437e9"/>
    </linearGradient>
  </defs>
  <path id="add_line" data-name="add line" class="cls-1" d="M192.242,191.311c-.256-.1-.451-.17-.475-.511a16.343,16.343,0,0,0-1.924-6.429,16.734,16.734,0,0,0-8.767-7.841c-1.242-.487-2.557-.791-3.921-1.205v-4.883H164.481v4.639c-.682-.183-1.315-.329-1.924-.511a14.3,14.3,0,0,1-9.741-11.847c-.037-.341.061-.475.377-.6a5.323,5.323,0,0,0,.17-9.875,13.846,13.846,0,0,0-1.425-.451h-1.364a14.572,14.572,0,0,0-1.461.463,5.233,5.233,0,0,0-3.129,3.994,1.625,1.625,0,0,1-.085.219v1.266a.653.653,0,0,1,.061.134,5.362,5.362,0,0,0,3.58,4.359.635.635,0,0,1,.329.438,17.068,17.068,0,0,0,7.525,12.614c.1.073.195.158.292.244a19.933,19.933,0,0,0,4.493,2.033c.158.037.317.061.463.1.292.061.536.11.755.158l.146.037c.11.024.219.049.3.061.195.037.377.073.56.122.024,0,.037.012.049.012h.012l.073,5.029h12.614v-4.627c.122.024.195.024.28.049a14.266,14.266,0,0,1,11.409,12.249c.049.39-.1.524-.438.645a5.328,5.328,0,1,0,3.835-.085Z" transform="translate(-145.9 -151.8)"/>
</svg>
