<?xml version="1.0"?>
<svg xmlns="http://www.w3.org/2000/svg" xmlns:xlink="http://www.w3.org/1999/xlink" version="1.1" id="Capa_1" x="0px" y="0px" viewBox="0 0 512 512" style="enable-background:new 0 0 512 512;" xml:space="preserve" width="512px" height="512px"><g><g>
	<g>
		<path d="M452.299,194.801c-20.834,0-37.78,16.946-37.78,37.78v94.378c0,16.468-13.404,29.862-29.862,29.862H127.343    c-16.457,0-29.862-13.394-29.862-29.862V232.58c0-20.834-16.946-37.78-37.78-37.78s-37.79,16.946-37.79,37.78v94.378    c0,58.135,47.296,105.432,105.432,105.432h257.314c58.135,0,105.432-47.296,105.432-105.432V232.58    C490.089,211.747,473.133,194.801,452.299,194.801z" data-original="#000000" class="active-path" fill="#001EFF"/>
	</g>
</g><g>
	<g>
		<path d="M127.343,462.924c-5.159,0-10.25-0.299-15.262-0.861v34.671c0,8.431,6.835,15.267,15.267,15.267    s15.267-6.835,15.267-15.267v-33.81H127.343z" data-original="#000000" class="active-path" fill="#001EFF"/>
	</g>
</g><g>
	<g>
		<path d="M384.657,462.924h-15.271v33.81c0,8.431,6.835,15.267,15.267,15.267s15.267-6.835,15.267-15.267v-34.671    C394.908,462.625,389.817,462.924,384.657,462.924z" data-original="#000000" class="active-path" fill="#001EFF"/>
	</g>
</g><g>
	<g>
		<path d="M375.043,0H136.957C85.94,0,44.435,41.505,44.435,92.522v73.487c4.913-1.127,10.018-1.741,15.267-1.741    c37.668,0,68.313,30.645,68.313,68.313v93.707h255.971V232.58c0-37.668,30.645-68.313,68.313-68.313    c5.249,0,10.354,0.615,15.267,1.741V92.522C467.565,41.505,426.06,0,375.043,0z M212.236,238.235    c-8.558,0-14.896-6.995-15.267-15.267c-0.369-8.245,7.281-15.267,15.267-15.267c8.559,0,14.896,6.995,15.267,15.267    C227.872,231.213,220.222,238.235,212.236,238.235z M212.236,159.783c-8.558,0-14.896-6.995-15.267-15.267    c-0.369-8.245,7.281-15.267,15.267-15.267c8.559,0,14.896,6.995,15.267,15.267C227.872,152.761,220.222,159.783,212.236,159.783z     M299.764,238.235c-8.558,0-14.896-6.995-15.267-15.267c-0.369-8.245,7.281-15.267,15.267-15.267    c8.559,0,14.896,6.995,15.267,15.267C315.401,231.213,307.751,238.235,299.764,238.235z M299.764,159.783    c-8.558,0-14.896-6.995-15.267-15.267c-0.369-8.245,7.281-15.267,15.267-15.267c8.559,0,14.896,6.995,15.267,15.267    C315.401,152.761,307.751,159.783,299.764,159.783z" data-original="#000000" class="active-path" fill="#001EFF"/>
	</g>
</g></g> </svg>
