<svg xmlns="http://www.w3.org/2000/svg" xmlns:xlink="http://www.w3.org/1999/xlink" viewBox="0 0 50 50">
  <defs>
    <style>
      .cls-1 {
        fill: url(#linear-gradient);
      }

      .cls-2 {
        fill: #fff;
      }
    </style>
    <linearGradient id="linear-gradient" x1="0.5" x2="0.5" y2="1" gradientUnits="objectBoundingBox">
      <stop offset="0" stop-color="#765dff"/>
      <stop offset="1" stop-color="#08b6d6"/>
    </linearGradient>
  </defs>
  <g id="Group_5736" data-name="Group 5736" transform="translate(-273 -1452)">
    <circle id="Ellipse_3" data-name="Ellipse 3" class="cls-1" cx="25" cy="25" r="25" transform="translate(273 1452)"/>
    <circle id="Ellipse_847" data-name="Ellipse 847" class="cls-2" cx="8.496" cy="8.496" r="8.496" transform="translate(289.515 1472.739)"/>
    <path id="Path_550" data-name="Path 550" class="cls-1" d="M14.892,16.457a1.646,1.646,0,1,0-1.949,1.61l-.266,2.287.206.073a1.077,1.077,0,0,0,.7,0l.3-.085-.339-2.287A1.646,1.646,0,0,0,14.892,16.457Z" transform="translate(284.741 1464.5)"/>
    <path id="Path_551" data-name="Path 551" class="cls-2" d="M19.72,5.879c0-2.82-2.578-5.059-5.713-5.059s-5.8,2.239-5.8,5.059v6.487a10.021,10.021,0,0,1,2.348-1.21V6.545a3.4,3.4,0,0,1,3.449-3.4h0a3.389,3.389,0,0,1,3.4,3.4V10.9a10.324,10.324,0,0,1,2.36,1.029Z" transform="translate(284.028 1461.559)"/>
  </g>
</svg>
