<svg xmlns="http://www.w3.org/2000/svg" viewBox="0 0 25.27 23.318">
  <defs>
    <style>
      .cls-1 {
        opacity: 0.746;
      }

      .cls-2 {
        fill: none;
        stroke: #4b61f4;
        stroke-width: 2px;
      }
    </style>
  </defs>
  <g id="Group_5639" data-name="Group 5639" class="cls-1" transform="translate(1 1)">
    <path id="Path_5885" data-name="Path 5885" class="cls-2" d="M95.06,629.654c-.06,0-.039.057-.046.089a1.945,1.945,0,0,1-1.961,1.507H73.807a1.937,1.937,0,0,1-1.964-1.528c-.007-.025.014-.071-.043-.067V628.7c.05.018.05.064.06.1a1.9,1.9,0,0,0,1.574,1.45,2.334,2.334,0,0,0,.418.035H93.014a1.994,1.994,0,0,0,1.535-.635,1.914,1.914,0,0,0,.447-.819c.014-.05.007-.11.067-.135C95.06,629.019,95.06,629.338,95.06,629.654Z" transform="translate(-71.8 -609.932)"/>
    <path id="Path_5886" data-name="Path 5886" class="cls-2" d="M99.159,103.5c0-.362,0-.727-.007-1.089,0-.394-.007-.787.007-1.181A1.921,1.921,0,0,1,101,99.392c.358-.011.72-.007,1.078-.007h5.677a.378.378,0,0,1,.23.071c.9.6,1.8,1.2,2.7,1.8a.382.382,0,0,0,.22.067q3.792,0,7.584,0a1.9,1.9,0,0,1,1.812,1.138,1.972,1.972,0,0,1,.167,1.039.464.464,0,0,1-.177-.089,1.743,1.743,0,0,0-.3-.465,1.977,1.977,0,0,0-1.546-.66q-8.627.005-17.257,0c-.06,0-.121,0-.181,0a1.9,1.9,0,0,0-1.667,1.117A.45.45,0,0,1,99.159,103.5Z" transform="translate(-98.18 -99.384)"/>
    <path id="Path_5887" data-name="Path 5887" class="cls-2" d="M104.4,182.424a1.9,1.9,0,0,1,1.666-1.117c.06,0,.121,0,.181,0q8.627,0,17.257,0a1.97,1.97,0,0,1,1.546.66,1.688,1.688,0,0,1,.3.464,2.532,2.532,0,0,0-.706-.149c-.064,0-.128-.007-.191-.007H105.3A2.764,2.764,0,0,0,104.4,182.424Z" transform="translate(-103.244 -178.395)"/>
    <path id="Path_5888" data-name="Path 5888" class="cls-2" d="M93.655,222.349H73.809A1.71,1.71,0,0,1,72.1,220.64V207.379a1.979,1.979,0,0,1,1.979-1.979h19.3a1.979,1.979,0,0,1,1.979,1.979V220.64A1.7,1.7,0,0,1,93.655,222.349Z" transform="translate(-72.089 -201.641)"/>
  </g>
</svg>
