<svg xmlns="http://www.w3.org/2000/svg" viewBox="0 0 48.396 44.509">
  <defs>
    <style>
      .cls-1 {
        opacity: 0.746;
      }

      .cls-2 {
        fill: none;
        stroke: #4b61f4;
        stroke-width: 2px;
      }
    </style>
  </defs>
  <g id="Group_5553" data-name="Group 5553" class="cls-1" transform="translate(1 1)">
    <path id="Path_5885" data-name="Path 5885" class="cls-2" d="M118.183,630.6c-.12.007-.078.113-.092.177a3.879,3.879,0,0,1-3.91,3H75.8a3.863,3.863,0,0,1-3.917-3.047c-.014-.05.028-.141-.085-.134v-1.9c.1.035.1.127.12.205A3.787,3.787,0,0,0,75.06,631.8a4.635,4.635,0,0,0,.834.071H114.1a3.977,3.977,0,0,0,3.062-1.266,3.817,3.817,0,0,0,.891-1.633c.028-.1.014-.219.134-.269C118.183,629.336,118.183,629.973,118.183,630.6Z" transform="translate(-71.8 -591.274)"/>
    <path id="Path_5886" data-name="Path 5886" class="cls-2" d="M99.168,107.594c-.007-.721-.007-1.449-.014-2.171,0-.785-.014-1.57.014-2.355a3.83,3.83,0,0,1,3.663-3.67c.714-.021,1.435-.014,2.149-.014H116.3a.754.754,0,0,1,.46.141c1.789,1.2,3.592,2.4,5.381,3.592a.762.762,0,0,0,.438.134q7.562,0,15.124,0a3.778,3.778,0,0,1,3.613,2.27,3.932,3.932,0,0,1,.332,2.072.926.926,0,0,1-.354-.177,3.476,3.476,0,0,0-.6-.926,3.942,3.942,0,0,0-3.083-1.315q-17.2.011-34.412.007c-.12,0-.24,0-.361.007a3.787,3.787,0,0,0-3.323,2.227A.9.9,0,0,1,99.168,107.594Z" transform="translate(-97.216 -99.384)"/>
    <path id="Path_5887" data-name="Path 5887" class="cls-2" d="M104.4,183.541a3.787,3.787,0,0,1,3.323-2.227c.12-.007.24-.007.361-.007q17.2,0,34.412-.007a3.929,3.929,0,0,1,3.083,1.315,3.367,3.367,0,0,1,.6.926,5.047,5.047,0,0,0-1.407-.3c-.127,0-.255-.014-.382-.014H106.2A5.512,5.512,0,0,0,104.4,183.541Z" transform="translate(-102.095 -175.508)"/>
    <path id="Path_5888" data-name="Path 5888" class="cls-2" d="M115.082,239.2H75.508a3.41,3.41,0,0,1-3.408-3.408V209.345a3.947,3.947,0,0,1,3.945-3.945h38.485a3.947,3.947,0,0,1,3.945,3.945v26.444A3.389,3.389,0,0,1,115.082,239.2Z" transform="translate(-72.079 -197.904)"/>
  </g>
</svg>
