<?xml version="1.0" encoding="utf-8"?>
<!-- Generator: Adobe Illustrator 21.0.0, SVG Export Plug-In . SVG Version: 6.00 Build 0)  -->
<svg version="1.1" id="Layer_1" xmlns="http://www.w3.org/2000/svg" xmlns:xlink="http://www.w3.org/1999/xlink" x="0px" y="0px"
	 viewBox="0 0 297 297" style="enable-background:new 0 0 297 297;" xml:space="preserve">
<style type="text/css">
	.st0{fill:url(#SVGID_1_);}
	.st1{fill:#FFFFFF;}
</style>
<linearGradient id="SVGID_1_" gradientUnits="userSpaceOnUse" x1="149.2183" y1="1.4366" x2="149.2183" y2="297">
	<stop  offset="0" style="stop-color:#765DFF"/>
	<stop  offset="1" style="stop-color:#08B6D6"/>
</linearGradient>
<circle class="st0" cx="149.2" cy="149.2" r="147.8"/>
<g>
	<path class="st1" d="M71.7,83.5c2.5,1.9,6,1.4,7.9-1.1c16.6-21.7,41.7-34.2,69-34.2s52.4,12.5,69,34.2c1.1,1.4,2.8,2.2,4.5,2.2
		c1.2,0,2.4-0.4,3.4-1.2c2.5-1.9,2.9-5.4,1.1-7.9C207.7,51.1,179.3,37,148.5,37S89.3,51.1,70.6,75.6C68.7,78,69.2,81.6,71.7,83.5z"
		/>
	<path class="st1" d="M208.2,113.4c0,9.7,7.9,17.5,17.5,17.5s17.5-7.9,17.5-17.5s-7.9-17.5-17.5-17.5S208.2,103.7,208.2,113.4
		L208.2,113.4z"/>
	<path class="st1" d="M243.7,136.8c0,0-4.5-1.4-4.5-1.4c-1.6-0.5-3.3-0.2-4.7,0.8l-8.8,6.6l-8.8-6.6c-1.3-1-3.1-1.3-4.7-0.8
		c0,0-4.4,1.4-4.5,1.4c-7.1,2.4-11.9,9-11.9,16.5v26.5c0,1,0.3,2,0.9,2.9l8.9,13.5v35.6c0,2.9,2.3,5.2,5.2,5.2h29.7
		c2.9,0,5.2-2.3,5.2-5.2v-35.6l8.9-13.5c0.6-0.9,0.9-1.9,0.9-2.9v-26.5C255.6,145.8,250.8,139.2,243.7,136.8L243.7,136.8z"/>
	<path class="st1" d="M71.2,131c9.7,0,17.5-7.9,17.5-17.5s-7.9-17.5-17.5-17.5s-17.5,7.9-17.5,17.5S61.6,131,71.2,131z"/>
	<path class="st1" d="M89.2,136.8c0,0-4.5-1.4-4.5-1.4c-1.6-0.5-3.3-0.2-4.7,0.8l-8.8,6.6l-8.8-6.6c-1.3-1-3.1-1.3-4.7-0.8
		c0,0-4.4,1.4-4.5,1.4c-7.1,2.4-11.9,9-11.9,16.5v26.5c0,1,0.3,2,0.9,2.9l8.9,13.5v35.6c0,2.9,2.3,5.2,5.2,5.2h29.7
		c2.9,0,5.2-2.3,5.2-5.2v-35.6l8.9-13.5c0.6-0.9,0.9-1.9,0.9-2.9v-26.5C101.1,145.8,96.3,139.2,89.2,136.8z"/>
	<path class="st1" d="M171.1,88.7c0-12.5-10.2-22.6-22.6-22.6s-22.6,10.2-22.6,22.6c0,12.5,10.2,22.6,22.6,22.6
		S171.1,101.2,171.1,88.7z"/>
	<path class="st1" d="M173.4,122.3L173.4,122.3l-6.5-2c-1-0.3-2.1,0.2-2.5,1.2l-13.6,37.3c-0.8,2.1-3.8,2.1-4.6,0l-13.6-37.3
		c-0.3-0.8-1.1-1.3-1.9-1.3c-0.2,0-7,2.1-7,2.1c-8.3,2.7-13.8,10.4-13.8,19v39.4c0,0.4,0.1,0.8,0.3,1.1l14.2,21.6V258
		c0,1.1,0.9,2,2,2h44.1c1.1,0,2-0.9,2-2v-54.6l14.2-21.6c0.2-0.3,0.3-0.7,0.3-1.1v-39.5C187.1,132.6,181.5,125,173.4,122.3
		L173.4,122.3z"/>
	<path class="st1" d="M153.8,121.5c-0.6-0.6-1.4-0.9-2.2-0.9h-6.2c-0.8,0-1.7,0.3-2.2,0.9c-0.9,0.9-1,2.3-0.4,3.4l3.3,5l-1.5,13.1
		l3.1,8.1c0.3,0.8,1.5,0.8,1.7,0l3.1-8.1l-1.5-13.1l3.3-5C154.8,123.8,154.7,122.5,153.8,121.5z"/>
</g>
</svg>
