<svg xmlns="http://www.w3.org/2000/svg" xmlns:xlink="http://www.w3.org/1999/xlink" viewBox="0 0 50 50">
  <defs>
    <style>
      .cls-1 {
        fill: url(#linear-gradient);
      }

      .cls-2 {
        fill: none;
        stroke: #fff;
        stroke-linecap: round;
        stroke-miterlimit: 10;
        stroke-width: 2px;
      }
    </style>
    <linearGradient id="linear-gradient" x1="0.5" x2="0.5" y2="1" gradientUnits="objectBoundingBox">
      <stop offset="0" stop-color="#765dff"/>
      <stop offset="1" stop-color="#08b6d6"/>
    </linearGradient>
  </defs>
  <g id="Group_5804" data-name="Group 5804" transform="translate(-75 -827)">
    <circle id="Ellipse_3" data-name="Ellipse 3" class="cls-1" cx="25" cy="25" r="25" transform="translate(75 827)"/>
    <g id="log_out" data-name="log out" transform="translate(88 839.5)">
      <g id="Group_1240" data-name="Group 1240" transform="translate(1)">
        <line id="Line_30" data-name="Line 30" class="cls-2" x2="11.45" transform="translate(1 11.7)"/>
        <g id="Group_1239" data-name="Group 1239" transform="translate(10.16 9.8)">
          <line id="Line_31" data-name="Line 31" class="cls-2" x2="2.29" y2="1.9"/>
          <line id="Line_32" data-name="Line 32" class="cls-2" y1="2" x2="2.29" transform="translate(0 1.9)"/>
        </g>
      </g>
      <path id="Path_623" data-name="Path 623" class="cls-2" d="M1.5,14.478v3.828a3.746,3.746,0,0,0,3.735,3.735H18.213a3.746,3.746,0,0,0,3.735-3.735V5.235A3.746,3.746,0,0,0,18.213,1.5H5.235A3.746,3.746,0,0,0,1.5,5.235V6.915" transform="translate(0.726 0.729)"/>
    </g>
  </g>
</svg>
