<svg xmlns="http://www.w3.org/2000/svg" xmlns:xlink="http://www.w3.org/1999/xlink" viewBox="0 0 30.212 47.695">
  <defs>
    <style>
      .cls-1 {
        fill: url(#linear-gradient);
      }
    </style>
    <linearGradient id="linear-gradient" x1="0.5" x2="0.5" y2="1" gradientUnits="objectBoundingBox">
      <stop offset="0" stop-color="#556df6"/>
      <stop offset="1" stop-color="#2437e9"/>
    </linearGradient>
  </defs>
  <g id="finger-moving-activating-an-arrow" transform="translate(-18.136)">
    <g id="Group_5938" data-name="Group 5938" transform="translate(18.136)">
      <path id="Path_6007" data-name="Path 6007" class="cls-1" d="M47.4,26.24a2.152,2.152,0,0,0-1-1.373,1.062,1.062,0,0,0,.029-.154c.011-.092.025-.189.039-.285.047-.216.1-.5.149-.818l.006-.027,0,.005a5.656,5.656,0,0,0-.063-2.444,2.135,2.135,0,0,0-1.834-1.379,2.514,2.514,0,0,0,.051-.653,13.235,13.235,0,0,0-.056-2.105c-.088-.8-1.164-1.42-2.3-1.838a4.464,4.464,0,0,0-3.677.919s1.969-2.88,2.782-4.337l.044-.038-.024.033,2.846-2.482,3.956-3.433L41.5,0l-.46,3.218A57.236,57.236,0,0,0,29.177,4.274,63.444,63.444,0,0,0,18.136,7.76a72.555,72.555,0,0,1,12.753-1.12A39.343,39.343,0,0,1,38.982,7.7l-.034.039a.146.146,0,0,0,.188,0l.011,0c-.4.5-.774,1-1.089,1.446C36.988,10.7,33.095,15.7,32.233,16.53c-1.211,1.16-1.46,1.942-2.5,3.876a25.937,25.937,0,0,1-2.351,3.541,6.969,6.969,0,0,0-.561.906,2.012,2.012,0,0,0-.491-.49,2.09,2.09,0,0,0-.919,0c.074-.362.364-.155.594-.934.222-.755-.185-1.047-.134-1.364-.006.059.777-.171,1.357-1.134a7.474,7.474,0,0,0,1.159-2.124,5.076,5.076,0,0,0,.049-1.584c-.212-1.083-.7-1.514-1.3-1.487-1.057.048-1.984,1.875-2.13,1.924a2.942,2.942,0,0,0-.521.372,5.86,5.86,0,0,0-2.423,1.2c-.408.319-.784,2.039-1.207,3.6-.509,1.875-1.427,3.577-1.254,4.789a37.375,37.375,0,0,0,2.16,6.986,48.48,48.48,0,0,0,3.414,5.957c.836,1.593,1.032,3.645,1.617,4.949,1.742,3.879,15.42,1.542,15.63.919s.474-.582.242-.905c-.169-.234.067-.5.185-1.293.047-.3-.123-.912-.046-1.294.21-1.04,3.279-6.891,4.646-10.066a5.222,5.222,0,0,0,.434-2.047c.037-.684.019-.075-.115-1.046A20.7,20.7,0,0,0,47.4,26.24ZM43.6,3.363a2.519,2.519,0,0,1,1.714,4.284c-.094.077-.319.256-.556.433a2.5,2.5,0,0,1-.722.274,5.954,5.954,0,0,0,1.081-1.769,1.575,1.575,0,0,0,.095-1.315c-.65-1.242-1.547-1.685-3.063-.793a7.081,7.081,0,0,0-1.13,1.059c0-.03.007-.061.012-.091.02-.074.045-.176.069-.29A2.519,2.519,0,0,1,43.6,3.363ZM41.09,5.192c-.021.1-.042.2-.042.2L41.04,5.4C41.056,5.329,41.071,5.261,41.09,5.192Z" transform="translate(-18.136)"/>
    </g>
  </g>
</svg>
