<svg xmlns="http://www.w3.org/2000/svg" xmlns:xlink="http://www.w3.org/1999/xlink" viewBox="0 0 32.376 38.979">
  <defs>
    <style>
      .cls-1 {
        fill: url(#linear-gradient);
      }
    </style>
    <linearGradient id="linear-gradient" x1="0.5" x2="0.5" y2="1" gradientUnits="objectBoundingBox">
      <stop offset="0" stop-color="#556df6"/>
      <stop offset="1" stop-color="#2437e9"/>
    </linearGradient>
  </defs>
  <g id="left-arrow" transform="translate(74.05 0) rotate(90)">
    <g id="Group_5936" data-name="Group 5936" transform="translate(0 41.674)">
      <path id="Path_6006" data-name="Path 6006" class="cls-1" d="M36.787,54.805l.061.013H10.766l8.2-8.218a2.153,2.153,0,0,0,0-3.027L17.689,42.3a2.134,2.134,0,0,0-3.012,0L.621,56.35a2.149,2.149,0,0,0,0,3.023L14.677,73.428a2.136,2.136,0,0,0,3.012,0l1.276-1.276a2.111,2.111,0,0,0,.622-1.506,2.048,2.048,0,0,0-.622-1.478L10.673,60.9H36.817a2.209,2.209,0,0,0,2.162-2.187V56.912A2.166,2.166,0,0,0,36.787,54.805Z" transform="translate(0 -41.674)"/>
    </g>
  </g>
</svg>
