<?xml version="1.0" encoding="utf-8"?>
<!-- Generator: Adobe Illustrator 21.0.0, SVG Export Plug-In . SVG Version: 6.00 Build 0)  -->
<svg version="1.1" id="Layer_1" xmlns="http://www.w3.org/2000/svg" xmlns:xlink="http://www.w3.org/1999/xlink" x="0px" y="0px"
	 viewBox="0 0 32.4 39" style="enable-background:new 0 0 32.4 39;" xml:space="preserve">
<style type="text/css">
	.st0{fill:#A3A7AF;}
</style>
<g id="left-arrow" transform="translate(-41.674 38.98) rotate(-90)">
	<g id="Group_5936" transform="translate(0 41.674)">
		<path id="Path_6006" class="st0" d="M36.8,13.1L36.8,13.1l-26,0L19,4.9c0.8-0.8,0.8-2.2,0-3l-1.3-1.3c-0.8-0.8-2.2-0.8-3,0
			L0.6,14.7c-0.8,0.8-0.8,2.2,0,3l14.1,14.1c0.8,0.8,2.2,0.8,3,0l1.3-1.3c0.4-0.4,0.6-0.9,0.6-1.5c0-0.6-0.2-1.1-0.6-1.5l-8.3-8.3
			h26.1c1.2,0,2.1-1,2.2-2.2v-1.8C38.9,14.1,38,13.1,36.8,13.1z"/>
	</g>
</g>
</svg>
