<?xml version="1.0" encoding="utf-8"?>
<!-- Generator: Adobe Illustrator 21.0.0, SVG Export Plug-In . SVG Version: 6.00 Build 0)  -->
<svg version="1.1" id="Layer_1" xmlns="http://www.w3.org/2000/svg" xmlns:xlink="http://www.w3.org/1999/xlink" x="0px" y="0px"
	 viewBox="0 0 30.2 47.7" style="enable-background:new 0 0 30.2 47.7;" xml:space="preserve">
<style type="text/css">
	.st0{fill:#A3A7AF;}
</style>
<g id="finger-moving-activating-an-arrow" transform="translate(-18.136)">
	<g id="Group_5938" transform="translate(18.136)">
		<path id="Path_6007" class="st0" d="M29.3,26.2c-0.1-0.6-0.5-1.1-1-1.4c0-0.1,0-0.1,0-0.2c0-0.1,0-0.2,0-0.3
			c0-0.2,0.1-0.5,0.1-0.8l0,0v0c0.2-0.8,0.1-1.6-0.1-2.4c-0.3-0.8-1-1.3-1.8-1.4c0-0.2,0.1-0.4,0.1-0.7c0-0.7,0-1.4-0.1-2.1
			c-0.1-0.8-1.2-1.4-2.3-1.8c-1.3-0.3-2.6,0.1-3.7,0.9c0,0,2-2.9,2.8-4.3l0,0l0,0l2.8-2.5l4-3.4L23.4,0l-0.5,3.2
			c-4-0.1-8,0.3-11.9,1.1c-3.8,0.8-7.5,2-11,3.5C4.2,7,8.5,6.6,12.8,6.6c2.7,0.1,5.4,0.4,8.1,1.1l0,0c0.1,0,0.1,0,0.2,0h0
			c-0.4,0.5-0.8,1-1.1,1.4c-1.1,1.5-5,6.5-5.8,7.3c-1.2,1.2-1.5,1.9-2.5,3.9c-0.7,1.2-1.5,2.4-2.4,3.5c-0.2,0.3-0.4,0.6-0.6,0.9
			c-0.1-0.2-0.3-0.4-0.5-0.5c-0.3-0.1-0.6-0.1-0.9,0c0.1-0.4,0.4-0.2,0.6-0.9c0.2-0.8-0.2-1-0.1-1.4c0,0.1,0.8-0.2,1.4-1.1
			c0.5-0.6,0.9-1.4,1.2-2.1c0.1-0.5,0.1-1.1,0-1.6c-0.2-1.1-0.7-1.5-1.3-1.5c-1.1,0-2,1.9-2.1,1.9c-0.2,0.1-0.4,0.2-0.5,0.4
			c-0.9,0.2-1.7,0.6-2.4,1.2c-0.4,0.3-0.8,2-1.2,3.6c-0.5,1.9-1.4,3.6-1.3,4.8c0.5,2.4,1.2,4.7,2.2,7c1,2.1,2.1,4.1,3.4,6
			c0.8,1.6,1,3.6,1.6,4.9c1.7,3.9,15.4,1.5,15.6,0.9s0.5-0.6,0.2-0.9c-0.2-0.2,0.1-0.5,0.2-1.3c0-0.3-0.1-0.9,0-1.3
			c0.2-1,3.3-6.9,4.6-10.1c0.3-0.6,0.4-1.3,0.4-2c0-0.7,0-0.1-0.1-1C29.6,28.6,29.5,27.4,29.3,26.2z M25.5,3.4
			c1.4,0,2.5,1.2,2.4,2.6c0,0.6-0.3,1.2-0.7,1.7c-0.1,0.1-0.3,0.3-0.6,0.4c-0.2,0.1-0.5,0.2-0.7,0.3c0.5-0.5,0.8-1.1,1.1-1.8
			c0.2-0.4,0.3-0.9,0.1-1.3C26.4,4,25.5,3.6,24,4.5c-0.4,0.3-0.8,0.7-1.1,1.1c0,0,0-0.1,0-0.1c0-0.1,0-0.2,0.1-0.3
			C23.3,4.1,24.3,3.3,25.5,3.4z M23,5.2c0,0.1,0,0.2,0,0.2l0,0C22.9,5.3,22.9,5.3,23,5.2z"/>
	</g>
</g>
</svg>
