<svg xmlns="http://www.w3.org/2000/svg" xmlns:xlink="http://www.w3.org/1999/xlink" viewBox="0 0 50 50">
  <defs>
    <style>
      .cls-1 {
        fill: url(#linear-gradient);
      }

      .cls-2 {
        fill: #fff;
      }
    </style>
    <linearGradient id="linear-gradient" x1="0.5" x2="0.5" y2="1" gradientUnits="objectBoundingBox">
      <stop offset="0" stop-color="#765dff"/>
      <stop offset="1" stop-color="#08b6d6"/>
    </linearGradient>
  </defs>
  <g id="Group_5803" data-name="Group 5803" transform="translate(-75 -900)">
    <circle id="Ellipse_880" data-name="Ellipse 880" class="cls-1" cx="25" cy="25" r="25" transform="translate(75 900)"/>
    <g id="working" transform="translate(85.518 911.021)">
      <path id="Path_560" data-name="Path 560" class="cls-2" d="M191.294,1a8.452,8.452,0,0,0-7.133,3.924,3.658,3.658,0,0,1-1.335,5.592,2.9,2.9,0,0,1,.607.814,1.833,1.833,0,0,1,2.821.691l.424.961a2.329,2.329,0,0,1,1.762,1.876h2.37a1.83,1.83,0,0,1,1.621,2.682,2.141,2.141,0,0,1,.191.26A8.452,8.452,0,0,0,191.294,1Zm1.025,11.181-1.737-2.155a.916.916,0,0,1-.2-.575V5.03a.916.916,0,1,1,1.831,0v4.1l1.535,1.9a.916.916,0,0,1-1.426,1.149Z" transform="translate(-171.666 -1.004)"/>
      <path id="Path_561" data-name="Path 561" class="cls-2" d="M13.947,168.56l-2.387-6.7c-.278-.78-.33-1.07-1.236-1.361l-1.163-.373.251-.875a1.484,1.484,0,0,1-1.114-.878l-1.729-4.066L9.2,157.662a1.106,1.106,0,0,0,.958.419l2.28-.181a.609.609,0,0,0,.586.781h6.117a.61.61,0,0,0,0-1.221H15.207a1.105,1.105,0,0,0-.815-1.934l-.194.015-.726-1.647a.61.61,0,1,0-1.117.493l.554,1.257-2.331.186-2.269-2.888,2.419,1.72c.057-.2.068-.233.082-.294a1.649,1.649,0,0,0-1.153-1.958l-2.7-.773a1.65,1.65,0,0,0-2.07,1.257l-1.627,8a1.409,1.409,0,0,0,.454,1.342H3.01l-1.186-9.364a.916.916,0,1,0-1.817.23l1.287,10.165a.916.916,0,0,0,.908.8h2.89v3.021L3.1,168.714a.916.916,0,0,0,1.158,1.419l1.747-1.426,1.747,1.426a.916.916,0,0,0,1.158-1.419l-1.99-1.624v-3.021h2.6l1.918,5.383a1.327,1.327,0,1,0,2.5-.891Z" transform="translate(0 -142.382)"/>
      <path id="Path_562" data-name="Path 562" class="cls-2" d="M119.409,67.234a2.441,2.441,0,1,0-1.675-3.02A2.441,2.441,0,0,0,119.409,67.234Z" transform="translate(-110.459 -58.695)"/>
      <path id="Path_563" data-name="Path 563" class="cls-2" d="M205.441,279.707h-6.117a.916.916,0,1,0,0,1.831h5.2v7.221h-2.143a.916.916,0,1,0,0,1.831h3.058a.916.916,0,0,0,.916-.916v-9.052A.916.916,0,0,0,205.441,279.707Z" transform="translate(-186.298 -262.694)"/>
    </g>
  </g>
</svg>
