<svg xmlns="http://www.w3.org/2000/svg" xmlns:xlink="http://www.w3.org/1999/xlink" viewBox="0 0 50 50">
  <defs>
    <style>
      .cls-1 {
        fill: url(#linear-gradient);
      }

      .cls-2, .cls-6 {
        fill: #fff;
      }

      .cls-3, .cls-4 {
        fill: none;
      }

      .cls-4 {
        stroke: #fff;
        stroke-width: 2px;
      }

      .cls-5, .cls-6 {
        stroke: none;
      }
    </style>
    <linearGradient id="linear-gradient" x1="0.5" x2="0.5" y2="1" gradientUnits="objectBoundingBox">
      <stop offset="0" stop-color="#765dff"/>
      <stop offset="1" stop-color="#08b6d6"/>
    </linearGradient>
  </defs>
  <g id="Group_5806" data-name="Group 5806" transform="translate(-75 -639)">
    <g id="Group_5502" data-name="Group 5502" transform="translate(-198 -813)">
      <circle id="Ellipse_3" data-name="Ellipse 3" class="cls-1" cx="25" cy="25" r="25" transform="translate(273 1452)"/>
      <circle id="Ellipse_847" data-name="Ellipse 847" class="cls-2" cx="8.496" cy="8.496" r="8.496" transform="translate(289.515 1472.739)"/>
      <path id="Path_550" data-name="Path 550" class="cls-1" d="M14.892,16.457a1.646,1.646,0,1,0-1.949,1.61l-.266,2.287.206.073a1.077,1.077,0,0,0,.7,0l.3-.085-.339-2.287A1.646,1.646,0,0,0,14.892,16.457Z" transform="translate(284.741 1464.5)"/>
      <path id="Path_551" data-name="Path 551" class="cls-2" d="M19.72,5.879c0-2.82-2.578-5.059-5.713-5.059s-5.8,2.239-5.8,5.059v6.487a10.021,10.021,0,0,1,2.348-1.21V6.545a3.4,3.4,0,0,1,3.449-3.4h0a3.389,3.389,0,0,1,3.4,3.4V10.9a10.324,10.324,0,0,1,2.36,1.029Z" transform="translate(284.028 1461.559)"/>
    </g>
    <g id="Group_5735" data-name="Group 5735" transform="translate(-198 -1261)">
      <circle id="Ellipse_3-2" data-name="Ellipse 3" class="cls-1" cx="25" cy="25" r="25" transform="translate(273 1900)"/>
      <g id="Group_1115" data-name="Group 1115" transform="translate(285.747 1910.732)">
        <g id="Group_1104" data-name="Group 1104" transform="translate(0)">
          <g id="Path_552" data-name="Path 552" class="cls-3" transform="translate(0 5.567)">
            <path class="cls-5" d="M4.444,0H19.278a4.444,4.444,0,0,1,4.444,4.444V14.759A4.444,4.444,0,0,1,19.278,19.2H4.444A4.444,4.444,0,0,1,0,14.759V4.444A4.444,4.444,0,0,1,4.444,0Z"/>
            <path class="cls-6" d="M 19.27770042419434 17.20363807678223 C 20.62557029724121 17.20363807678223 21.72213935852051 16.10705757141113 21.72213935852051 14.75918769836426 L 21.72213935852051 4.444447994232178 C 21.72213935852051 3.096578121185303 20.62557029724121 1.999998092651367 19.27770042419434 1.999998092651367 L 4.444449901580811 1.999998092651367 C 3.096579790115356 1.999998092651367 1.999999642372131 3.096578121185303 1.999999642372131 4.444447994232178 L 1.999999642372131 14.75918769836426 C 1.999999642372131 16.10705757141113 3.096579790115356 17.20363807678223 4.444449901580811 17.20363807678223 L 19.27770042419434 17.20363807678223 M 19.27770042419434 19.20363807678223 L 4.444449901580811 19.20363807678223 C 1.98984968662262 19.20363807678223 -3.207397583082638e-07 17.21378898620605 -3.207397583082638e-07 14.75918769836426 L -3.207397583082638e-07 4.444447994232178 C -3.207397583082638e-07 1.989848136901855 1.98984968662262 -1.915283291964442e-06 4.444449901580811 -1.915283291964442e-06 L 19.27770042419434 -1.915283291964442e-06 C 21.73229026794434 -1.915283291964442e-06 23.72213935852051 1.989848136901855 23.72213935852051 4.444447994232178 L 23.72213935852051 14.75918769836426 C 23.72213935852051 17.21378898620605 21.73229026794434 19.20363807678223 19.27770042419434 19.20363807678223 Z"/>
          </g>
          <path id="Path_499" data-name="Path 499" class="cls-2" d="M3.671,0h8.166c2.028,0,2.03,3.606,2.03,3.606s0,3.652-2.03,3.652l-8.166.084A3.671,3.671,0,0,1,3.671,0Z" transform="translate(11.861 11.78)"/>
          <circle id="Ellipse_838" data-name="Ellipse 838" class="cls-1" cx="1.977" cy="1.977" r="1.977" transform="translate(13.556 13.474)"/>
          <path id="Path_498" data-name="Path 498" class="cls-4" d="M6772.789,2005.566l9.235-5.33a1.505,1.505,0,0,1,.876-.224,1.19,1.19,0,0,1,.638.54l3.358,5.013Z" transform="translate(-6766.968 -2000)"/>
        </g>
      </g>
    </g>
  </g>
</svg>
