<svg xmlns="http://www.w3.org/2000/svg" xmlns:xlink="http://www.w3.org/1999/xlink" viewBox="0 0 77.768 41.373">
  <defs>
    <style>
      .cls-1 {
        fill: url(#linear-gradient);
      }
    </style>
    <linearGradient id="linear-gradient" x1="0.5" x2="0.5" y2="1" gradientUnits="objectBoundingBox">
      <stop offset="0" stop-color="#556df6"/>
      <stop offset="1" stop-color="#2437e9"/>
    </linearGradient>
  </defs>
  <path id="Path_5878" data-name="Path 5878" class="cls-1" d="M69.449,26.1H44.707a8.291,8.291,0,0,0-5.824,2.393A8.291,8.291,0,0,0,33.06,26.1H8.319A8.329,8.329,0,0,0,0,34.417V59.161a8.325,8.325,0,0,0,8.319,8.314H33.06a8.279,8.279,0,0,0,5.824-2.393,8.279,8.279,0,0,0,5.824,2.393H69.449a8.328,8.328,0,0,0,8.319-8.314V34.417A8.33,8.33,0,0,0,69.449,26.1Zm5.824,33.062a5.82,5.82,0,0,1-5.824,5.819H45.5V62.8h-1.17v2.146a5.807,5.807,0,0,1-5.452-5.781,5.806,5.806,0,0,1-5.452,5.781V62.8h-1.17v2.183H8.309a5.823,5.823,0,0,1-5.824-5.819V34.419A5.821,5.821,0,0,1,8.309,28.6H32.257v2.183h1.17V28.635a5.808,5.808,0,0,1,5.452,5.784,5.806,5.806,0,0,1,5.452-5.784v2.146H45.5V28.6h2.6v7.8l2.43-2.039,2.43,2.039V28.6h16.49a5.823,5.823,0,0,1,5.824,5.821V59.163ZM32.267,33.693h1.17V36.6h-1.17Zm0,11.642h1.17v2.912h-1.17Zm0,11.644h1.17v2.909h-1.17Zm0-5.824h1.17V54.07h-1.17Zm0-11.642h1.17v2.909h-1.17Zm12.066-5.821H45.5V36.6h-1.17Zm0,23.286H45.5v2.909h-1.17Zm0-17.466H45.5v2.909h-1.17Zm0,5.821H45.5v2.912h-1.17Zm0,5.821H45.5V54.07h-1.17ZM17.052,35.2h10.19v1.5H17.052Zm0,5.7h10.19v1.5H17.052ZM6.864,46.648H27.241v1.5H6.864v-1.5Zm0,5.7H27.241v1.5H6.864v-1.5Zm0,5.756H27.241v1.5H6.864V58.1ZM8.605,42.833l.531-1.644H12.2l.551,1.644h1.784l-2.859-8.084H9.713L6.854,42.833H8.605Zm2.071-6.28v-.008h0l0,.008L11.752,39.8H9.606Zm49.91,17.358c-.027,1.9.05,3.9-.038,5.749H59.2V53.911ZM64.112,52.6C65.12,54.188,66,55.9,66.986,57.512c-.379.215-.768.424-1.125.659-1.058-1.549-1.924-3.289-2.952-4.875C63.263,53.008,63.744,52.861,64.112,52.6Zm-8.474,0c.4.19.741.454,1.17.619C55.915,54.909,54.927,56.5,54,58.166a9.349,9.349,0,0,1-1.163-.619C53.647,55.777,54.722,54.27,55.638,52.6Zm10.916-2.982c1.627.983,3.3,1.921,4.913,2.914-.175.419-.436.754-.619,1.163-1.647-.936-3.353-1.816-4.945-2.8A7.694,7.694,0,0,1,66.554,49.617Zm-12.66,1.2c-1.534,1.058-3.3,1.891-4.913,2.872a9.344,9.344,0,0,1-.729-1.2c1.694-.926,3.333-1.906,4.983-2.874A11.8,11.8,0,0,0,53.894,50.819Zm6.362,1.345a5.57,5.57,0,0,0,4.838-3.6A5.7,5.7,0,0,0,63.6,42.448c-.317-.28-.9-.482-1.021-.874a7.077,7.077,0,0,1-.038-1.891V37.719a9.921,9.921,0,0,0-5.312,0v1.964a6.552,6.552,0,0,1-.04,1.966c-.077.212-.362.347-.547.474a5.565,5.565,0,0,0-2.331,4.548A5.506,5.506,0,0,0,60.256,52.164Zm-3.129-8.7c.365-.3.858-.477,1.165-.945a5.015,5.015,0,0,0,.329-2.62,6.433,6.433,0,0,1,2.547-.038,4.446,4.446,0,0,0,.512,2.947,13.412,13.412,0,0,0,1.128.8,4.048,4.048,0,0,1,1.275,3.238,4.187,4.187,0,0,1-8.366-.179A3.994,3.994,0,0,1,57.128,43.466Z" transform="translate(0 -26.101)"/>
</svg>
