<?xml version="1.0" encoding="utf-8"?>
<!-- Generator: Adobe Illustrator 21.0.0, SVG Export Plug-In . SVG Version: 6.00 Build 0)  -->
<svg version="1.1" id="Layer_1" xmlns="http://www.w3.org/2000/svg" xmlns:xlink="http://www.w3.org/1999/xlink" x="0px" y="0px"
	 viewBox="0 0 41.7 32.1" style="enable-background:new 0 0 41.7 32.1;" xml:space="preserve">
<style type="text/css">
	.st0{fill:none;}
	.st1{fill:none;stroke:#A3A7AF;stroke-width:3;}
	.st2{fill:#A3A7AF;}
</style>
<g id="Group_5489" transform="translate(-282.595 -1364.653)">
	<g id="Group_1150" transform="translate(282.665 1364.653)">
		<g id="Group_5415" transform="translate(0 0)">
			<g id="Rectangle_3067">
				<path class="st0" d="M3,0h35.6c1.7,0,3,1.3,3,3v26c0,1.7-1.3,3-3,3H3c-1.7,0-3-1.3-3-3V3C0,1.3,1.3,0,3,0z"/>
				<path class="st1" d="M3,1.5h35.6c0.8,0,1.5,0.7,1.5,1.5v26c0,0.8-0.7,1.5-1.5,1.5H3c-0.8,0-1.5-0.7-1.5-1.5V3
					C1.5,2.2,2.2,1.5,3,1.5z"/>
			</g>
			<path id="Path_5863" class="st1" d="M0.9,20.7l9.4-8.3L27.8,31"/>
			<path id="Path_5864" class="st1" d="M18.8,19.7l7.4-6.2l14.4,12.2"/>
		</g>
	</g>
	<circle id="Ellipse_862" class="st2" cx="300.8" cy="1374.3" r="2.1"/>
</g>
</svg>
