<?xml version="1.0" encoding="utf-8"?>
<!-- Generator: Adobe Illustrator 21.0.0, SVG Export Plug-In . SVG Version: 6.00 Build 0)  -->
<svg version="1.1" id="Capa_1" xmlns="http://www.w3.org/2000/svg" xmlns:xlink="http://www.w3.org/1999/xlink" x="0px" y="0px"
	 viewBox="0 0 44.2 44.2" style="enable-background:new 0 0 44.2 44.2;" xml:space="preserve">
<style type="text/css">
	.st0{fill:#A7A9B6;}
	.st1{fill:#505571;}
</style>
<g>
	<g>
		<path class="st0" d="M22.1,44.2C9.9,44.2,0,34.3,0,22.1S9.9,0,22.1,0s22.1,9.9,22.1,22.1S34.3,44.2,22.1,44.2z M22.1,1.5
			c-11.4,0-20.6,9.2-20.6,20.6c0,11.4,9.3,20.6,20.6,20.6c11.4,0,20.6-9.3,20.6-20.6C42.7,10.7,33.5,1.5,22.1,1.5z"/>
		<path class="st1" d="M19.3,29.9c-0.2,0-0.4-0.1-0.5-0.2c-0.3-0.3-0.3-0.8,0-1.1l6.8-6.8L18.8,15c-0.3-0.3-0.3-0.8,0-1.1
			c0.3-0.3,0.8-0.3,1.1,0l7.3,7.3c0.3,0.3,0.3,0.8,0,1.1l-7.3,7.3C19.7,29.8,19.5,29.9,19.3,29.9z"/>
	</g>
</g>
</svg>
