<svg xmlns="http://www.w3.org/2000/svg" viewBox="0 0 21.334 21.333">
  <defs>
    <style>
      .cls-1 {
        fill: #1c9ee4;
        fill-rule: evenodd;
      }
    </style>
  </defs>
  <path id="Search" class="cls-1" d="M20.943,19.161,15.1,13.318a8.268,8.268,0,0,0,1.6-4.925A8.429,8.429,0,0,0,8.321,0,8.284,8.284,0,0,0,0,8.333a8.43,8.43,0,0,0,8.381,8.394,8.242,8.242,0,0,0,4.94-1.618l.006,0,5.836,5.839a1.259,1.259,0,1,0,1.78-1.781ZM8.375,15.053A6.744,6.744,0,0,1,1.67,8.339,6.629,6.629,0,0,1,8.327,1.673a6.744,6.744,0,0,1,6.705,6.714,6.629,6.629,0,0,1-6.656,6.666Z"/>
</svg>
