<?xml version="1.0" encoding="utf-8"?>
<!-- Generator: Adobe Illustrator 21.0.0, SVG Export Plug-In . SVG Version: 6.00 Build 0)  -->
<svg version="1.1" id="Layer_1" xmlns="http://www.w3.org/2000/svg" xmlns:xlink="http://www.w3.org/1999/xlink" x="0px" y="0px"
	 viewBox="0 0 39.9 45.9" style="enable-background:new 0 0 39.9 45.9;" xml:space="preserve">
<style type="text/css">
	.st0{fill:url(#Path_5991_1_);}
	.st1{fill:url(#Path_5992_1_);}
	.st2{fill:url(#Path_5993_1_);}
	.st3{fill:url(#Path_5994_1_);}
	.st4{fill:url(#Path_5995_1_);}
	.st5{fill:url(#Path_5996_1_);}
	.st6{fill:url(#Path_5997_1_);}
</style>
<g id="click" transform="matrix(0.985, -0.174, 0.174, 0.985, -65.388, 13.797)">
	<g id="Group_5916" transform="translate(0)">
		
			<linearGradient id="Path_5991_1_" gradientUnits="userSpaceOnUse" x1="-17.4637" y1="96.2615" x2="-17.4637" y2="95.2615" gradientTransform="matrix(20.9065 5.7076 3.6931 -32.3101 97.7354 3223.4023)">
			<stop  offset="0" style="stop-color:#556DF6"/>
			<stop  offset="1" style="stop-color:#2437E9"/>
		</linearGradient>
		<path id="Path_5991" class="st0" d="M98.5,33.1L79.2,13.8c-0.4-0.4-1-0.4-1.4,0c-0.2,0.2-0.3,0.4-0.3,0.7v26.7c0,0.5,0.4,1,1,1
			c0.2,0,0.4-0.1,0.6-0.2l4.9-3.8l4.3,7.7c0.3,0.5,0.8,0.6,1.3,0.4l5.8-2.9c0.2-0.1,0.4-0.3,0.5-0.6c0.1-0.3,0-0.5-0.1-0.8l-4-7.2
			h6.1c0.5,0,1-0.4,1-1C98.7,33.5,98.6,33.3,98.5,33.1L98.5,33.1z M89.9,32.7c-0.5,0-0.9,0.4-0.9,0.9c0,0.2,0,0.3,0.1,0.4l4.3,7.8
			l-3.9,2L85.2,36c-0.1-0.2-0.4-0.4-0.6-0.5c-0.1,0-0.1,0-0.2,0c-0.2,0-0.4,0.1-0.6,0.2l-4.1,3.2V17.3l15.4,15.4L89.9,32.7z"/>
	</g>
	<g id="Group_5919" transform="translate(77.522)">
		<g id="Group_5918" transform="translate(0)">
			
				<linearGradient id="Path_5992_1_" gradientUnits="userSpaceOnUse" x1="-67.4814" y1="93.3804" x2="-67.4814" y2="92.3804" gradientTransform="matrix(1.901 1.3434 0.3358 -7.6048 97.8911 800.7971)">
				<stop  offset="0" style="stop-color:#556DF6"/>
				<stop  offset="1" style="stop-color:#2437E9"/>
			</linearGradient>
			<path id="Path_5992" class="st1" d="M1,0C0.4,0,0,0.4,0,1l0,5.8c0,0.5,0.4,1,1,1c0.5,0,1-0.4,1-1c0,0,0,0,0,0V1
				C1.9,0.4,1.5,0,1,0z"/>
		</g>
	</g>
	<g id="Group_5921" transform="translate(64.016 13.506)">
		<g id="Group_5920" transform="translate(0)">
			
				<linearGradient id="Path_5993_1_" gradientUnits="userSpaceOnUse" x1="-70.3737" y1="46.6076" x2="-70.3737" y2="45.6076" gradientTransform="matrix(7.6074 0.3358 1.3439 -1.901 476.5891 112.2359)">
				<stop  offset="0" style="stop-color:#556DF6"/>
				<stop  offset="1" style="stop-color:#2437E9"/>
			</linearGradient>
			<path id="Path_5993" class="st2" d="M6.8,0L1,0C0.4,0,0,0.4,0,1c0,0.5,0.4,1,1,1c0,0,0,0,0,0h5.8c0.5,0,1-0.4,1-1
				C7.7,0.4,7.3,0,6.8,0C6.8,0,6.8,0,6.8,0z"/>
		</g>
	</g>
	<g id="Group_5923" transform="translate(85.24 13.506)">
		<g id="Group_5922">
			
				<linearGradient id="Path_5994_1_" gradientUnits="userSpaceOnUse" x1="-91.5977" y1="46.6076" x2="-91.5977" y2="45.6076" gradientTransform="matrix(7.6074 0.3358 1.3439 -1.901 638.0501 119.3633)">
				<stop  offset="0" style="stop-color:#556DF6"/>
				<stop  offset="1" style="stop-color:#2437E9"/>
			</linearGradient>
			<path id="Path_5994" class="st3" d="M6.8,0L1,0C0.4,0,0,0.4,0,1c0,0.5,0.4,1,1,1c0,0,0,0,0,0l5.8,0c0.5,0,1-0.4,1-1
				C7.7,0.4,7.3,0,6.8,0C6.8,0,6.8,0,6.8,0z"/>
		</g>
	</g>
	<g id="Group_5925" transform="translate(67.971 3.957)">
		<g id="Group_5924" transform="translate(0)">
			
				<linearGradient id="Path_5995_1_" gradientUnits="userSpaceOnUse" x1="-77.0527" y1="83.2357" x2="-77.0527" y2="82.2357" gradientTransform="matrix(5.9547 1.0515 1.0519 -5.9525 374.273 576.4587)">
				<stop  offset="0" style="stop-color:#556DF6"/>
				<stop  offset="1" style="stop-color:#2437E9"/>
			</linearGradient>
			<path id="Path_5995" class="st4" d="M5.7,4.4L1.6,0.3c-0.4-0.4-1-0.4-1.4,0c-0.4,0.4-0.4,1,0,1.4c0,0,0,0,0,0l4.1,4.1
				C4.6,5.9,4.8,6,5.1,6c0.3,0,0.5-0.1,0.7-0.3C6.1,5.4,6.1,4.8,5.7,4.4z"/>
		</g>
	</g>
	<g id="Group_5927" transform="translate(67.971 18.966)">
		<g id="Group_5926" transform="translate(0)">
			
				<linearGradient id="Path_5996_1_" gradientUnits="userSpaceOnUse" x1="-76.9686" y1="68.1467" x2="-76.9686" y2="67.1467" gradientTransform="matrix(5.9111 1.0439 1.0442 -5.9092 386.8367 483.0346)">
				<stop  offset="0" style="stop-color:#556DF6"/>
				<stop  offset="1" style="stop-color:#2437E9"/>
			</linearGradient>
			<path id="Path_5996" class="st5" d="M5.7,0.3c-0.4-0.4-1-0.4-1.4,0L0.3,4.4c-0.4,0.4-0.3,1,0,1.4c0.4,0.3,0.9,0.3,1.3,0l4.1-4.1
				C6.1,1.3,6.1,0.7,5.7,0.3z"/>
		</g>
	</g>
	<g id="Group_5929" transform="translate(82.979 3.955)">
		<g id="Group_5928">
			
				<linearGradient id="Path_5997_1_" gradientUnits="userSpaceOnUse" x1="-92.0212" y1="83.2012" x2="-92.0212" y2="82.2012" gradientTransform="matrix(5.9341 1.048 1.0483 -5.9326 461.8607 590.0325)">
				<stop  offset="0" style="stop-color:#556DF6"/>
				<stop  offset="1" style="stop-color:#2437E9"/>
			</linearGradient>
			<path id="Path_5997" class="st6" d="M5.7,0.3c-0.4-0.4-1-0.4-1.4,0c0,0,0,0,0,0L0.3,4.4c-0.4,0.4-0.4,1,0,1.4
				c0.4,0.4,1,0.4,1.4,0l0,0l4.1-4.1C6.1,1.3,6.1,0.7,5.7,0.3z"/>
		</g>
	</g>
</g>
</svg>
