<?xml version="1.0" encoding="utf-8"?>
<!-- Generator: Adobe Illustrator 21.0.0, SVG Export Plug-In . SVG Version: 6.00 Build 0)  -->
<svg version="1.1" id="Layer_1" xmlns="http://www.w3.org/2000/svg" xmlns:xlink="http://www.w3.org/1999/xlink" x="0px" y="0px"
	 viewBox="0 0 39.9 45.9" style="enable-background:new 0 0 39.9 45.9;" xml:space="preserve">
<style type="text/css">
	.st0{fill:#A3A7AF;}
</style>
<g id="click" transform="matrix(0.985, -0.174, 0.174, 0.985, -65.388, 13.797)">
	<g id="Group_5917" transform="translate(77.522 13.51)">
		<g id="Group_5916" transform="translate(0)">
			<path id="Path_5991" class="st0" d="M20.9,19.6L1.6,0.3c-0.4-0.4-1-0.4-1.4,0C0.1,0.5,0,0.7,0,1l0,26.7c0,0.5,0.4,1,1,1
				c0.2,0,0.4-0.1,0.6-0.2l4.9-3.8l4.3,7.7c0.3,0.5,0.8,0.6,1.3,0.4l5.8-2.9c0.2-0.1,0.4-0.3,0.5-0.6c0.1-0.3,0-0.5-0.1-0.8l-4-7.2
				h6.1c0.5,0,1-0.4,1-1C21.2,20,21.1,19.8,20.9,19.6L20.9,19.6z M12.5,19.3c-0.5,0-1,0.4-1,1c0,0.2,0,0.3,0.1,0.5l4.3,7.8l-4.1,2
				l-4.4-7.9c-0.1-0.2-0.4-0.4-0.7-0.5c-0.1,0-0.1,0-0.2,0c-0.2,0-0.4,0.1-0.6,0.2l-4.2,3.3l0-22.4l16,16L12.5,19.3z"/>
		</g>
	</g>
	<g id="Group_5919" transform="translate(77.522)">
		<g id="Group_5918" transform="translate(0)">
			<path id="Path_5992" class="st0" d="M1,0C0.4,0,0,0.4,0,1l0,5.8c0,0.5,0.4,1,1,1c0.5,0,1-0.4,1-1c0,0,0,0,0,0V1
				C1.9,0.4,1.5,0,1,0z"/>
		</g>
	</g>
	<g id="Group_5921" transform="translate(64.016 13.506)">
		<g id="Group_5920" transform="translate(0)">
			<path id="Path_5993" class="st0" d="M6.8,0L1,0C0.4,0,0,0.4,0,1c0,0.5,0.4,1,1,1c0,0,0,0,0,0h5.8c0.5,0,1-0.4,1-1
				C7.7,0.4,7.3,0,6.8,0C6.8,0,6.8,0,6.8,0z"/>
		</g>
	</g>
	<g id="Group_5923" transform="translate(85.24 13.506)">
		<g id="Group_5922">
			<path id="Path_5994" class="st0" d="M6.8,0L1,0C0.4,0,0,0.4,0,1c0,0.5,0.4,1,1,1c0,0,0,0,0,0l5.8,0c0.5,0,1-0.4,1-1
				C7.7,0.4,7.3,0,6.8,0C6.8,0,6.8,0,6.8,0z"/>
		</g>
	</g>
	<g id="Group_5925" transform="translate(67.971 3.957)">
		<g id="Group_5924" transform="translate(0)">
			<path id="Path_5995" class="st0" d="M5.7,4.4L1.6,0.3c-0.4-0.4-1-0.4-1.4,0c-0.4,0.4-0.4,1,0,1.4c0,0,0,0,0,0l4.1,4.1
				C4.6,5.9,4.8,6,5.1,6c0.3,0,0.5-0.1,0.7-0.3C6.1,5.4,6.1,4.8,5.7,4.4z"/>
		</g>
	</g>
	<g id="Group_5927" transform="translate(67.971 18.966)">
		<g id="Group_5926" transform="translate(0)">
			<path id="Path_5996" class="st0" d="M5.7,0.3c-0.4-0.4-1-0.4-1.4,0L0.3,4.4c-0.4,0.4-0.3,1,0,1.4c0.4,0.3,0.9,0.3,1.3,0l4.1-4.1
				C6.1,1.3,6.1,0.7,5.7,0.3z"/>
		</g>
	</g>
	<g id="Group_5929" transform="translate(82.979 3.955)">
		<g id="Group_5928">
			<path id="Path_5997" class="st0" d="M5.7,0.3c-0.4-0.4-1-0.4-1.4,0c0,0,0,0,0,0L0.3,4.4c-0.4,0.4-0.4,1,0,1.4
				c0.4,0.4,1,0.4,1.4,0l0,0l4.1-4.1C6.1,1.3,6.1,0.7,5.7,0.3z"/>
		</g>
	</g>
</g>
</svg>
