<?xml version="1.0" encoding="utf-8"?>
<!-- Generator: Adobe Illustrator 21.0.0, SVG Export Plug-In . SVG Version: 6.00 Build 0)  -->
<svg version="1.1" id="Layer_1" xmlns="http://www.w3.org/2000/svg" xmlns:xlink="http://www.w3.org/1999/xlink" x="0px" y="0px"
	 viewBox="0 0 36.5 36.5" style="enable-background:new 0 0 36.5 36.5;" xml:space="preserve">
<style type="text/css">
	.st0{fill:#A3A7AF;}
	.st1{fill:#FFFFFF;}
</style>
<g id="Group_5933" transform="translate(-62.771 -275.685)">
	<path id="search" class="st0" d="M98.7,309.4c-2.8-2.8-5.5-5.5-8.3-8.3c-0.1-0.1-0.2-0.2-0.3-0.3c5.4-6.5,4.5-16.2-2.1-21.7
		c-6.5-5.4-16.2-4.5-21.7,2.1c-4.3,5.2-4.7,12.7-0.9,18.3c2,3.1,5.1,5.3,8.7,6.3c4.8,1.4,10,0.3,13.9-2.9c0.1,0.1,0.2,0.2,0.3,0.4
		c2.7,2.7,5.5,5.5,8.2,8.2c0.1,0.1,0.2,0.2,0.4,0.4c0.6,0.5,1.6,0.4,2.1-0.2c0.1-0.2,0.2-0.3,0.3-0.5
		C99.4,310.4,99.2,309.8,98.7,309.4z"/>
	<g id="Group_5914" transform="translate(69.784 282.783)">
		<path id="Rectangle_3308" class="st1" d="M8.2,0L8.2,0c0.6,0,1.2,0.5,1.2,1.2v14.1c0,0.6-0.5,1.2-1.2,1.2l0,0
			c-0.6,0-1.2-0.5-1.2-1.2V1.2C7,0.5,7.6,0,8.2,0z"/>
		<path id="Rectangle_3309" class="st1" d="M16.4,8.2L16.4,8.2c0,0.6-0.5,1.2-1.2,1.2H1.2C0.5,9.4,0,8.9,0,8.2l0,0
			C0,7.6,0.5,7,1.2,7h14.1C15.9,7,16.4,7.6,16.4,8.2z"/>
	</g>
</g>
</svg>
