<?xml version="1.0" encoding="utf-8"?>
<!-- Generator: Adobe Illustrator 21.0.0, SVG Export Plug-In . SVG Version: 6.00 Build 0)  -->
<svg version="1.1" id="Layer_1" xmlns="http://www.w3.org/2000/svg" xmlns:xlink="http://www.w3.org/1999/xlink" x="0px" y="0px"
	 viewBox="0 0 36.5 36.5" style="enable-background:new 0 0 36.5 36.5;" xml:space="preserve">
<style type="text/css">
	.st0{fill:#A3A7AF;}
	.st1{fill:#FFFFFF;}
</style>
<g id="Group_5934" transform="translate(-62.771 -426.685)">
	<path id="search" class="st0" d="M98.7,460.4c-2.8-2.8-5.5-5.5-8.3-8.3c-0.1-0.1-0.2-0.2-0.3-0.3c5.4-6.5,4.5-16.2-2.1-21.7
		c-6.5-5.4-16.2-4.5-21.7,2.1c-4.3,5.2-4.7,12.7-0.9,18.3c2,3.1,5.1,5.3,8.7,6.3c4.8,1.4,10,0.3,13.9-2.9c0.1,0.1,0.2,0.2,0.3,0.4
		c2.7,2.7,5.5,5.5,8.2,8.2c0.1,0.1,0.2,0.2,0.4,0.4c0.6,0.5,1.6,0.4,2.1-0.2c0.1-0.2,0.2-0.3,0.3-0.5
		C99.4,461.4,99.2,460.8,98.7,460.4z"/>
	<g id="Group_5915" transform="translate(69.208 435.742)">
		<path id="Rectangle_3309" class="st1" d="M17.6,6.2L17.6,6.2c0,0.7-0.6,1.3-1.3,1.3H1.3C0.6,7.5,0,6.9,0,6.2v0C0,5.6,0.6,5,1.3,5
			h15.1C17,5,17.6,5.6,17.6,6.2z"/>
	</g>
</g>
</svg>
